<?xml version="1.0" encoding="UTF-8" standalone="no"?>
<!-- Created with Inkscape (http://www.inkscape.org/) -->

<svg
   xmlns:dc="http://purl.org/dc/elements/1.1/"
   xmlns:cc="http://creativecommons.org/ns#"
   xmlns:rdf="http://www.w3.org/1999/02/22-rdf-syntax-ns#"
   xmlns:svg="http://www.w3.org/2000/svg"
   xmlns="http://www.w3.org/2000/svg"
   xmlns:sodipodi="http://sodipodi.sourceforge.net/DTD/sodipodi-0.dtd"
   xmlns:inkscape="http://www.inkscape.org/namespaces/inkscape"
   width="172.45581"
   height="31.001698"
   id="svg2"
   version="1.1"
   inkscape:version="0.48.4 r9939"
   sodipodi:docname="logo.svg"
   inkscape:export-filename="/home/vaerros/projects/datapp/app/assets/images/logo.png"
   inkscape:export-xdpi="51.532768"
   inkscape:export-ydpi="51.532768">
  <defs
     id="defs4" />
  <sodipodi:namedview
     id="base"
     pagecolor="#ffffff"
     bordercolor="#666666"
     borderopacity="1.0"
     inkscape:pageopacity="0.0"
     inkscape:pageshadow="2"
     inkscape:zoom="0.99"
     inkscape:cx="439.16948"
     inkscape:cy="-249.61013"
     inkscape:document-units="px"
     inkscape:current-layer="layer1"
     showgrid="false"
     fit-margin-top="0"
     fit-margin-left="0"
     fit-margin-right="0"
     fit-margin-bottom="0"
     inkscape:window-width="1600"
     inkscape:window-height="844"
     inkscape:window-x="0"
     inkscape:window-y="24"
     inkscape:window-maximized="1" />
  <metadata
     id="metadata7">
    <rdf:RDF>
      <cc:Work
         rdf:about="">
        <dc:format>image/svg+xml</dc:format>
        <dc:type
           rdf:resource="http://purl.org/dc/dcmitype/StillImage" />
        <dc:title></dc:title>
      </cc:Work>
    </rdf:RDF>
  </metadata>
  <g
     inkscape:label="Layer 1"
     inkscape:groupmode="layer"
     id="layer1"
     transform="translate(-255.17325,-348.90656)">
    <g
       transform="matrix(0.91095725,0,0,0.91095725,85.999835,32.235734)"
       style="font-size:48px;font-style:normal;font-variant:normal;font-weight:bold;font-stretch:normal;line-height:125%;letter-spacing:0px;word-spacing:0px;fill:#a720be;fill-opacity:1;stroke:none;font-family:'Intro ';-inkscape-font-specification:Intro Bold"
       id="flowRoot2985-7">
      <path
         d="m 198.3815,348.05625 -12.672,0 0,33.6 12.672,0 c 21.88798,-0.096 21.88798,-33.504 0,-33.6 m -4.08,7.824 4.08,0 c 10.70399,0 10.70399,17.952 0,17.952 l -4.08,0 0,-17.952"
         style="fill:#ffffff;fill-opacity:1;font-family:'Intro ';-inkscape-font-specification:'Intro '"
         id="path4138"
         inkscape:connector-curvature="0" />
      <path
         d="m 242.6945,381.65625 8.4,0 0,-1.248 -15.168,-32.784 -3.696,0 -15.12,32.784 0,1.248 8.4,0 1.968,-4.224 13.248,0 1.968,4.224 m -4.8,-11.616 -7.584,0 3.744,-8.832 3.84,8.832"
         style="fill:#ffffff;fill-opacity:1;font-family:'Intro ';-inkscape-font-specification:'Intro '"
         id="path4140"
         inkscape:connector-curvature="0" />
      <path
         d="m 258.62225,355.73625 0,25.92 c 2.832,0 5.664,0 8.496,0 l 0,-25.92 8.208,0 c 0,-2.592 0,-5.136 0,-7.68 l -24.96,0 c 0,2.544 0,5.088 0,7.68 l 8.256,0"
         style="fill:#ffffff;fill-opacity:1;font-family:'Intro ';-inkscape-font-specification:'Intro '"
         id="path4142"
         inkscape:connector-curvature="0" />
      <path
         d="m 302.03825,381.65625 8.4,0 0,-1.248 -15.168,-32.784 -3.696,0 -15.12,32.784 0,1.248 8.4,0 1.968,-4.224 13.248,0 1.968,4.224 m -4.752,-11.568 -7.68,0 3.792,-8.832 3.888,8.832"
         style="fill:#854f89;fill-opacity:1;font-family:'Intro ';-inkscape-font-specification:'Intro '"
         id="path4144"
         inkscape:connector-curvature="0" />
      <path
         d="m 323.489,381.65625 0,-8.592 6.192,0 c 16.07998,0 16.07998,-24.96 0,-25.008 -4.944,0 -9.936,0 -14.784,0 0,11.23199 0,22.41601 0,33.6 2.832,0 5.712,0 8.592,0 m 6.144,-16.32 -6.144,0 c 0,-2.736 0,-6.864 0,-9.6 1.968,0 4.128,-0.048 6.144,0 4.992,0.048 4.704,9.6 0,9.6"
         style="fill:#854f89;fill-opacity:1;font-family:'Intro ';-inkscape-font-specification:'Intro '"
         id="path4146"
         inkscape:connector-curvature="0" />
      <path
         d="m 356.77025,381.65625 0,-8.592 6.192,0 c 16.07998,0 16.07998,-24.96 0,-25.008 -4.944,0 -9.936,0 -14.784,0 0,11.23199 0,22.41601 0,33.6 2.832,0 5.712,0 8.592,0 m 6.144,-16.32 -6.144,0 c 0,-2.736 0,-6.864 0,-9.6 1.968,0 4.128,-0.048 6.144,0 4.992,0.048 4.704,9.6 0,9.6"
         style="fill:#854f89;fill-opacity:1;font-family:'Intro ';-inkscape-font-specification:'Intro '"
         id="path4148"
         inkscape:connector-curvature="0" />
    </g>
    <flowRoot
       xml:space="preserve"
       id="flowRoot2997"
       style="font-size:28px;font-style:normal;font-variant:normal;font-weight:normal;font-stretch:normal;line-height:125%;letter-spacing:0px;word-spacing:0px;fill:#000000;fill-opacity:1;stroke:none;font-family:Open Sans;-inkscape-font-specification:Open Sans"><flowRegion
         id="flowRegion2999"><rect
           id="rect3001"
           width="171.71718"
           height="38.383839"
           x="253.53535"
           y="114.68436" /></flowRegion><flowPara
         id="flowPara3003" /></flowRoot>    <flowRoot
       xml:space="preserve"
       id="flowRoot3005"
       style="font-size:28px;font-style:normal;font-variant:normal;font-weight:normal;font-stretch:normal;line-height:125%;letter-spacing:0px;word-spacing:0px;fill:#000000;fill-opacity:1;stroke:none;font-family:Open Sans;-inkscape-font-specification:Open Sans"
       transform="translate(246.19814,381.66329)"><flowRegion
         id="flowRegion3007"><rect
           id="rect3009"
           width="36.363636"
           height="29.292929"
           x="185.85858"
           y="4.583354" /></flowRegion><flowPara
         id="flowPara3011">PPPP</flowPara></flowRoot>  </g>
</svg>
